HIERARCHY
ROOT Hips
{
  OFFSET 0 0 0
  CHANNELS 6 Xposition Yposition Zposition Zrotation Xrotation Yrotation
  JOINT Spine
  {
    OFFSET 0 9.9235 -1.22729
    CHANNELS 3 Zrotation Xrotation Yrotation
    JOINT Spine1
    {
      OFFSET -9.9969e-05 11.6454 -1.4223
      CHANNELS 3 Zrotation Xrotation Yrotation
      JOINT Spine2
      {
        OFFSET 9.98118e-05 13.3602 -1.6265
        CHANNELS 3 Zrotation Xrotation Yrotation
        JOINT Neck
        {
          OFFSET 0 15.0325 0.7929
          CHANNELS 3 Zrotation Xrotation Yrotation
          JOINT Head
          {
            OFFSET 0 10.3218 3.1424
            CHANNELS 3 Zrotation Xrotation Yrotation
            End Site
            {
              OFFSET 0.0002 18.4747 6.6364
            }
          }
        }
        JOINT LeftShoulder
        {
          OFFSET 6.1058 9.1104 0.7056
          CHANNELS 3 Zrotation Xrotation Yrotation
          JOINT LeftArm
          {
            OFFSET 12.655 -0.265904 -2.60091
            CHANNELS 3 Zrotation Xrotation Yrotation
            JOINT LeftForeArm
            {
              OFFSET 27.4047 0 0
              CHANNELS 3 Zrotation Xrotation Yrotation
              JOINT LeftHand
              {
                OFFSET 27.6145 -1.98104e-05 0
                CHANNELS 3 Zrotation Xrotation Yrotation
                End Site
                {
                  OFFSET 12.7755 0 0
                }
              }
            }
          }
        }
        JOINT RightShoulder
        {
          OFFSET -6.1057 9.1105 0.7056
          CHANNELS 3 Zrotation Xrotation Yrotation
          JOINT RightArm
          {
            OFFSET -12.655 -0.265999 -2.6009
            CHANNELS 3 Zrotation Xrotation Yrotation
            JOINT RightForeArm
            {
              OFFSET -27.4047 0 0
              CHANNELS 3 Zrotation Xrotation Yrotation
              JOINT RightHand
              {
                OFFSET -27.6145 0 0
                CHANNELS 3 Zrotation Xrotation Yrotation
                End Site
                {
                  OFFSET -12.7755 0 0
                }
              }
            }
          }
        }
      }
    }
  }
  JOINT RightUpLeg
  {
    OFFSET -9.12449 -6.6564 -0.0554004
    CHANNELS 3 Zrotation Xrotation Yrotation
    JOINT RightLeg
    {
      OFFSET -0.245231 -40.5954 -0.51698
      CHANNELS 3 Zrotation Xrotation Yrotation
      JOINT RightFoot
      {
        OFFSET 0.244701 -42.0479 -2.0602
        CHANNELS 3 Zrotation Xrotation Yrotation
        JOINT RightToe
        {
          OFFSET -0.373402 -10.4922 12.6407
          CHANNELS 3 Zrotation Xrotation Yrotation
          End Site
          {
            OFFSET 0 0 9.9925
          }
        }
      }
    }
  }
  JOINT LeftUpLeg
  {
    OFFSET 9.1245 -6.6564 -0.055401
    CHANNELS 3 Zrotation Xrotation Yrotation
    JOINT LeftLeg
    {
      OFFSET 0.245022 -40.5954 -0.518725
      CHANNELS 3 Zrotation Xrotation Yrotation
      JOINT LeftFoot
      {
        OFFSET -0.244696 -42.048 -2.0576
        CHANNELS 3 Zrotation Xrotation Yrotation
        JOINT LeftToe
        {
          OFFSET 0.373399 -10.4922 12.6407
          CHANNELS 3 Zrotation Xrotation Yrotation
          End Site
          {
            OFFSET 0 0 9.9925
          }
        }
      }
    }
  }
}
MOTION
Frames: 12
Frame Time:	0.0333333
-9.41441  86.1415  103.266 -153.881  43.4124  91.9697   -9.9144    6.3919 -0.415459 -0.00105927   -0.861478    -3.37199 -10.9085 -12.6606  36.0388  24.4988  -7.2556 -28.5325   30.1705  -50.8814 -0.597545 -19.9649  13.6056 -41.2725  109.332   7.8894 -24.4772  15.7986  1.77027 -2.93484   44.885 -55.4709   88.844 1.08218 2.26651 38.3546 -93.9046  11.8745  41.3862  14.6246 -4.81304 -16.3154 -1.23845 -14.9386  0.81793  105.275 -21.4154  67.1829 2.85256 2.37551 15.6401 -16.8105 -27.7724 -13.6891  -7.056 50.5679 8.75888 -24.9504  4.19145 -28.3724  4.82284  28.6973 -15.3638  3.25195  6.35956 -17.9325 -5.58957 -9.30736  -8.8802 
-9.49377  87.3054  109.376 -164.39 33.5553 99.4028 -2.71246  5.81872 -2.15226  -3.52031  -7.21742 -0.435092 -11.1384 -12.7366  38.8549  26.3051  -8.1322 -30.2432  36.8902 -50.0634  4.09297 -19.8909  12.4377  -42.201 108.142 4.90171   -26.5  15.3368  1.20875 -4.00221  58.2914 -54.8411  97.0384 -0.0854823    2.69473    44.3208 -101.047  10.3511   52.686  14.0597 -6.79194 -19.0046 -2.66686 -13.3526 -2.74203  109.399 -19.1022  64.3893 0.110151  4.87057   20.072 -20.4572 -16.2119 -11.6164 0.615027  34.9645 -1.29148  -35.993 -2.28223 -28.7115 3.52648 42.3851 -14.711  1.89956  -5.2959 -10.1974 -4.94838 -10.6522 -9.36507 
-8.37181  87.8368  116.607 -172.277  22.9846   104.21  8.39795   9.2335 -4.59359 -14.7761 -18.2114  2.39437 -8.15903 -11.7232  42.8525   28.579 -10.5058 -33.2871  42.2917 -48.3758  7.23464 -20.1453  11.1377 -41.0546  107.176  3.53456 -29.0953  14.6523  1.16601 -6.13257  72.9545 -53.4683  107.731 -0.927915   2.33855   49.3247 -106.802  10.5489  59.1509 13.9429 -8.7318 -22.909 -4.36324  -10.029 -5.89057  112.396 -21.8794  59.0803 -5.5126  19.821 24.7132  -31.092 -10.2645 -10.4584  3.76288  25.5594 -6.10397 -43.9801 -8.30379 -32.0653  1.67584  50.0735 -10.4119  6.82454 -11.7478 -4.39667 -5.35531 -13.4505 -10.5709 
-7.0954 86.0747 124.202 -176.893  15.1685  105.174  23.3706   13.237 -11.7472 -40.7703 -34.0838  2.06435  9.19869 -1.75243  41.7523  10.6022 -18.3956 -24.5764  33.4222 -46.3644  -18.025 -17.6618  14.3969 -35.1082   107.65  2.09762 -24.6091  2.84681  1.08203 -5.94176   72.589 -49.5856  103.615 -5.94567 -11.5184  55.0139 -88.5976   1.1051  61.5128  2.14781 -9.74218 -22.5857 -2.91832 -3.35032 -9.06018  104.568 -28.1488  52.1243 -11.8358  35.2396  26.4521 -41.1096  -11.428 -5.60347  6.83193  24.3324 -9.64527 -50.2285  -11.035 -37.2005 -1.61549  47.3585 -8.04428  11.3138 -12.4767   -2.194 -6.50284 -15.8412 -12.1613 
-6.4685 83.5577 130.471 -178.767  10.9583  100.998  27.9945  11.0025 -15.4029  -58.6596  -40.2283 -0.127101 33.8743 8.03015 25.0029 -3.44682 -47.4667   18.932  12.5148 -23.5196 -70.2175 -6.56488  23.2485 -24.6156  111.584 -1.15207 -5.30963  -16.6033 -0.604189   13.1259  125.102 -39.6761  134.944 -7.7763 29.2953  71.207 -90.323 13.4382  53.697 -14.1967 -11.3408 -10.8168 0.421215 0.917719 -12.1872   81.942 -30.3367  41.8583 -12.2965  39.9743  27.0122 -43.9447 -11.6918 -2.36853  9.53058    23.68 -11.1069  -56.146  -12.863 -44.1018 -3.60136  36.1782 -8.54706  12.6693 -10.2145 -0.73838 -7.42398 -16.9761  -12.723 
-5.97292  82.9527  134.377 -179.913  8.02979  93.2392  23.3427   6.0469 -15.0675 -48.7592 -36.7533  10.6397   40.96  10.019 13.6048  13.9616 -56.0446  66.5882  17.1017 -15.3699 -87.6484 0.521728  24.6706 -19.3941  109.687 -5.79266  7.48615 -26.4082 -9.06252    25.28  136.208 -44.7457  139.946 -4.69595  42.4102  77.0833 -94.8364  20.7127  47.1507  -21.627 -15.6301 -2.78206  2.39198   1.4496 -14.1364  56.133 -27.517 30.6509 -9.39522  36.9015  24.8216 -40.5654 -8.02397  -1.0689  10.1827  21.2906 -10.7524 -64.1657 -18.8233 -52.3561 -3.10172  25.1099 -8.05157  12.4381 -10.0841 0.532782 -7.29209 -16.6937 -11.3632 
-6.12588  84.6922  136.704 -179.52 4.90306 83.2779  14.2746  1.79985 -11.3636 -29.1916 -28.1173  17.9703 41.9374 15.0031 5.45931  37.8294 -54.1357   125.41  22.8808 -15.7888 -109.593   5.2399   10.387 -10.9516  90.3133 -18.7023 0.591105 -34.1696 -19.7515  30.4013  112.567 -62.8705  117.203 -2.72894  28.2787  73.9717 -96.1512  21.5756  48.4082 -26.4854 -22.3431  2.08633  3.83889 0.422002 -15.5562  32.9476 -21.8858   20.237 -6.51089  29.5956  22.0576  -35.5381  -2.48461 -0.959993  9.30139  18.9747 -9.14719 -78.3653 -29.5629 -62.7091 -2.23835  25.0956 -5.32327  12.1275 -15.6328  1.86496 -6.71872  -15.548 -9.59328 
-7.33998  88.2468  139.171 -178.299 -1.59984  74.2241  11.2447  1.61837 -8.28743 -17.1794  -19.205  15.7147 36.6929 7.44683 24.1685  54.8343 -17.6045  -168.95  20.7894 -33.7183 -176.494  11.5352  10.5956 -6.05229  88.6999 -7.92999  49.9771 -37.5635 0.486186  12.9073  91.1349 -63.8958  100.227 -1.63247  21.3804  70.9064 -101.033  27.6805  49.1416 -22.7249 -2.64976 -11.1925 0.907285 -6.47401  -18.501  17.2457 -18.5447  13.0628 -6.12562  26.7849  18.9119 -31.3826 0.250045 -1.85977  7.13555  12.5279 -6.90101  -94.472 -38.5404 -75.2985 -2.31614  24.0264 -2.11547  12.5097 -17.2927  2.35425 -5.86796 -12.1664 -8.01689 
-8.72642  91.9721  143.548 -179.535 -12.4447  66.5278  12.0037  3.16996 -7.76248 -9.15205 -11.8322  9.28729 32.1373 1.29282 29.2516 21.2144 13.9822 -108.18 -62.523 -44.338 120.266 -1.28074 -4.45508  31.5948  110.967 -30.0803  57.5474 -29.2426  7.03044  10.2062  75.7836 -64.5784   86.793 -1.40821  17.4425  71.7109 -105.337  33.6456  48.0749  -16.367  6.56668 -15.6546  3.07425 -9.84465 -19.7564  10.2704 -21.0727    10.58 -7.70461  30.9227  12.3054  -31.4684 -0.356035   -1.3966  5.58606  10.3699 -5.04146 -110.383 -43.2904 -89.8915  -3.33472   22.8281 -0.852888  14.3255 -13.6445  2.66186 -5.84541 -11.0887 -7.97241 
-10.0588  94.3793  150.025  177.608 -26.9995  58.6937  13.4165  4.65156 -6.59544 -1.59596 -6.61615  5.73948 29.6158  1.7377 23.5088 19.7618 4.51241  -85.76 -123.866 -73.7613  93.5853  -2.7772 -5.54958  20.4953 94.1431 -44.971 43.4622 -23.7401  2.43482  15.4618 59.7162 -65.402 66.4526 -1.54516  13.3535  73.6026 -109.032  37.9917  43.9045 -10.2635  5.15082 -12.8918     4.32 -9.52993 -19.8332  8.44962 -24.5186  10.9882 -8.69485  35.4529  12.6341  -32.2893 -0.704762 -0.191998  4.40115  11.6861 -3.35699 -119.612 -45.6901 -98.0699   -5.2084    21.003 -0.225384   1.61797   -21.675 -0.247594 -6.06887 -11.4642 -7.65449 
-10.9416  95.1613  158.797 171.392 -41.455 46.9075   14.611  6.07089 -5.90899  3.26794 -2.84372  3.12093 28.0105 2.57765 18.7145   21.2502 -0.146081  -68.1793  128.656 -66.4142   7.3981 -4.73087 -4.10255   8.6213  70.2135 -46.4415  30.2914    -19.875 -0.0375727    19.8112  47.6623 -63.8493  55.5268 -1.64639  10.3165  65.4404 -106.128  39.5859  34.6989 -6.73612  4.54461 -10.0166  5.02368 -8.47185 -19.8123  8.97134 -29.3354  12.3533 -8.98285  38.4353  17.6209 -31.114 -3.9385  1.7306  3.36663  10.3161 -2.05747 -136.413 -45.3295 -113.089 -7.43195  36.0905 0.311296 -6.92903 -29.4881 -2.42133 -6.34687 -10.3182 -7.87239 
-11.6225  94.2273  168.295  159.967 -53.8474  29.2384  16.0812  7.78046 -5.67581   6.25876 -0.101835  0.904665 26.0714 3.35857 15.1488  21.1605 0.872053  -52.197  103.926 -50.4377 -5.19746 -6.09463 -3.32624  4.06554  56.4724 -45.0969   23.393  -17.107 -1.64283  23.5002  37.0297 -62.7176  55.0073 -3.60462  10.0942  43.0254 -94.105 34.6728 18.5201 -5.80191  3.77415 -7.61529 4.17081 -7.8092 -18.995  8.26398 -36.1994  11.9757 -7.11047  38.9348  16.6301 -27.6566 -8.43303  4.77678   2.15764   9.14096 -0.907314 -147.142 -43.5475 -123.534  -9.91241    45.151 -0.861068 -8.04022 -28.6528 -2.45133 -5.54918 -8.40588  -7.5484 
